<svg xmlns="http://www.w3.org/2000/svg" width="20" viewBox="0 0 44.304 47">
  <g id="LIGHT" transform="translate(-446.348 -453)">
    <path id="Path_7" data-name="Path 7" d="M71.135,35.568a16.063,16.063,0,0,1-.817,5.081,15.5,15.5,0,0,1-2.438,4.587l-4.309-4.587-2.55-2.714a5.305,5.305,0,0,0,.55-2.367,4.94,4.94,0,0,0-4.783-5.081H54.025L44.479,20.324H56.788a14.437,14.437,0,0,1,13.53,10.162A16.063,16.063,0,0,1,71.135,35.568Z" transform="translate(415.854 432.676)" fill="#fff"/>
    <path id="Path_5" data-name="Path 5" d="M67.842,45.236a14.176,14.176,0,0,1-8.811,5.385l-9.389-9.972L30.506,20.324H44.441l9.545,10.162,7,7.448,2.55,2.714Z" transform="translate(415.854 432.676)" fill="#7f7f7f"/>
    <path id="Path_6" data-name="Path 6" d="M74.8,67.324H61.044l-5.98-6.351L45.5,50.811,35.926,40.649l-5.4-5.733,0-4.429.011-10.162,9.564,10.162,9.565,10.162,9.386,9.973h.01l.181.191,9.568,10.162Z" transform="translate(415.854 432.676)" fill="#fff"/>
    <path id="Path_8" data-name="Path 8" d="M43.1,67.324H30.494l.007-6.351.008-7.025,6.614,7.025Z" transform="translate(415.854 432.676)" fill="#7f7f7f"/>
  </g>
</svg>
