<svg version="1.1" id="Layer_1" xmlns="http://www.w3.org/2000/svg" xmlns:xlink="http://www.w3.org/1999/xlink" x="0px" y="0px"
	 width="425px" height="129px" viewBox="0 0 425 129" enable-background="new 0 0 425 129" xml:space="preserve">
<g>
	<path fill="none" stroke="#000000" stroke-width="5" stroke-miterlimit="10" d="M94.125,82.469L74.594,102H16V43.406l19.531-19.531
		h58.594V82.469z M64.828,82.469l9.766-9.766V43.406H45.297l-9.766,9.766v29.297H64.828z"/>
	<path fill="none" stroke="#000000" stroke-width="5" stroke-miterlimit="10" d="M157.836,43.406h-43.945V23.875h92.773
		L148.07,82.469h43.945V102H99.242L157.836,43.406z"/>
	<path fill="none" stroke="#000000" stroke-width="5" stroke-miterlimit="10" d="M255.727,43.406h-43.945V23.875h92.773
		l-58.594,58.594h43.945V102h-92.773L255.727,43.406z"/>
	<path fill="none" stroke="#000000" stroke-width="5" stroke-miterlimit="10" d="M338.969,67.82l-29.297-29.297V9.227l39.063,39.063
		l24.414-24.414h29.297L358.5,67.82v29.297l-19.531,9.766V67.82z"/>
</g>
</svg>
