<svg version="1.1" id="Layer_1" xmlns="http://www.w3.org/2000/svg" xmlns:xlink="http://www.w3.org/1999/xlink" x="0px" y="0px"
	 width="931px" height="129px" viewBox="0 0 931 129" enable-background="new 0 0 931 129" xml:space="preserve">
<g>
	<path fill="none" stroke="#000000" stroke-width="2" stroke-miterlimit="10" d="M94.125,82.469L74.594,102H16V43.406l19.531-19.531
		h58.594V82.469z M64.828,82.469l9.766-9.766V43.406H45.297l-9.766,9.766v29.297H64.828z"/>
	<path fill="none" stroke="#000000" stroke-width="2" stroke-miterlimit="10" d="M157.836,43.406h-43.945V23.875h92.773
		L148.07,82.469h43.945V102H99.242L157.836,43.406z"/>
	<path fill="none" stroke="#000000" stroke-width="2" stroke-miterlimit="10" d="M255.727,43.406h-43.945V23.875h92.773
		l-58.594,58.594h43.945V102h-92.773L255.727,43.406z"/>
	<path fill="none" stroke="#000000" stroke-width="2" stroke-miterlimit="10" d="M338.969,67.82l-29.297-29.297V9.227l39.063,39.063
		l24.414-24.414h29.297L358.5,67.82v29.297l-19.531,9.766V67.82z"/>
	<path fill="none" stroke="#000000" stroke-width="2" stroke-miterlimit="10" d="M471.664,43.406l-9.766,9.766h58.594v29.297
		L500.961,102h-63.477l9.766-19.531h43.945l9.766-9.766h-58.594V43.406l19.531-19.531h63.477l-9.766,19.531H471.664z"/>
	<path fill="none" stroke="#000000" stroke-width="2" stroke-miterlimit="10" d="M623.266,23.875L613.5,43.406h-24.414v53.711
		l-19.531,9.766V43.406h-29.297V23.875H623.266z"/>
	<path fill="none" stroke="#000000" stroke-width="2" stroke-miterlimit="10" d="M716.273,82.469L696.742,102h-58.594V43.406
		l19.531-19.531h58.594V82.469z M686.977,82.469l9.766-9.766V43.406h-29.297l-9.766,9.766v29.297H686.977z"/>
	<path fill="none" stroke="#000000" stroke-width="2" stroke-miterlimit="10" d="M755.57,43.406V102h-19.531V23.875h68.359
		l9.766,19.531L789.75,67.82l24.414,24.414v29.297L760.453,67.82l24.414-24.414H755.57z"/>
	<path fill="none" stroke="#000000" stroke-width="2" stroke-miterlimit="10" d="M853.461,43.406v9.766h58.594l-9.766,19.531
		h-48.828v9.766h63.477L907.172,102H833.93V23.875h83.008l-9.766,19.531H853.461z"/>
</g>
</svg>
